<!-- <svg xmlns="http://www.w3.org/2000/svg" width="50" height="50" viewBox="0 0 50 50" fill="none">
  
  
  <path d="M25 50C11.1929 50 0 38.8071 0 25C0 11.1929 11.1929 0 25 0C38.8071 0 50 11.1929 50 25C50 38.8071 38.8071 50 25 50Z" fill="white" fill-opacity="0.2"/>
  <path d="M27.715 33.699C27.5448 33.8731 27.3169 33.9791 27.0741 33.9972C26.8312 34.0152 26.5901 33.944 26.396 33.797L26.301 33.715L18.301 25.898C18.1289 25.7297 18.0231 25.505 18.0033 25.2651C17.9835 25.0252 18.0508 24.7862 18.193 24.592L18.273 24.496L25.996 16.314C26.1706 16.1289 26.4091 16.0173 26.663 16.0018C26.917 15.9864 27.1672 16.0684 27.3629 16.231C27.5585 16.3936 27.6848 16.6247 27.7161 16.8772C27.7473 17.1297 27.6811 17.3846 27.531 17.59L27.451 17.686L20.402 25.155L27.699 32.285C27.8732 32.4552 27.9792 32.6831 27.9972 32.926C28.0153 33.1688 27.9441 33.4099 27.797 33.604L27.715 33.699Z" fill="black"/>

  
</svg> -->


<svg xmlns="http://www.w3.org/2000/svg" width="60" height="60" viewBox="0 0 60 60" transform="rotate(180)" fill="none">
  <g filter="url(#filter0_ddd_1_262)">
    <path d="M30 55C43.8071 55 55 43.8071 55 30C55 16.1929 43.8071 5 30 5C16.1929 5 5 16.1929 5 30C5 43.8071 16.1929 55 30 55Z" fill="black"/>
  </g>
  <path d="M30 55C43.8071 55 55 43.8071 55 30C55 16.1929 43.8071 5 30 5C16.1929 5 5 16.1929 5 30C5 43.8071 16.1929 55 30 55Z" fill="white"/>
  <path d="M27.285 38.699C27.4552 38.8731 27.6831 38.9792 27.926 38.9972C28.1688 39.0152 28.4099 38.9441 28.604 38.797L28.699 38.715L36.699 30.898C36.8712 30.7298 36.9769 30.5051 36.9967 30.2652C37.0166 30.0252 36.9492 29.7862 36.807 29.592L36.727 29.496L29.004 21.314C28.8295 21.1289 28.591 21.0173 28.337 21.0019C28.0831 20.9864 27.8328 21.0684 27.6372 21.231C27.4415 21.3936 27.3152 21.6247 27.284 21.8772C27.2527 22.1297 27.3189 22.3846 27.469 22.59L27.549 22.686L34.598 30.155L27.301 37.285C27.1269 37.4552 27.0208 37.6831 27.0028 37.926C26.9847 38.1688 27.0559 38.4099 27.203 38.604L27.285 38.699Z" fill="#333333"/>
  <defs>
    <filter id="filter0_ddd_1_262" x="1" y="1" width="58" height="59" filterUnits="userSpaceOnUse" color-interpolation-filters="sRGB">
      <feFlood flood-opacity="0" result="BackgroundImageFix"/>
      <feColorMatrix in="SourceAlpha" type="matrix" values="0 0 0 0 0 0 0 0 0 0 0 0 0 0 0 0 0 0 127 0" result="hardAlpha"/>
      <feOffset/>
      <feGaussianBlur stdDeviation="2"/>
      <feColorMatrix type="matrix" values="0 0 0 0 0 0 0 0 0 0 0 0 0 0 0 0 0 0 0.08 0"/>
      <feBlend mode="normal" in2="BackgroundImageFix" result="effect1_dropShadow_1_262"/>
      <feColorMatrix in="SourceAlpha" type="matrix" values="0 0 0 0 0 0 0 0 0 0 0 0 0 0 0 0 0 0 127 0" result="hardAlpha"/>
      <feOffset dy="1"/>
      <feGaussianBlur stdDeviation="2"/>
      <feColorMatrix type="matrix" values="0 0 0 0 0 0 0 0 0 0 0 0 0 0 0 0 0 0 0.03 0"/>
      <feBlend mode="normal" in2="effect1_dropShadow_1_262" result="effect2_dropShadow_1_262"/>
      <feColorMatrix in="SourceAlpha" type="matrix" values="0 0 0 0 0 0 0 0 0 0 0 0 0 0 0 0 0 0 127 0" result="hardAlpha"/>
      <feOffset/>
      <feGaussianBlur stdDeviation="2"/>
      <feColorMatrix type="matrix" values="0 0 0 0 0 0 0 0 0 0 0 0 0 0 0 0 0 0 0.02 0"/>
      <feBlend mode="normal" in2="effect2_dropShadow_1_262" result="effect3_dropShadow_1_262"/>
      <feBlend mode="normal" in="SourceGraphic" in2="effect3_dropShadow_1_262" result="shape"/>
    </filter>
  </defs>
</svg>